<svg width="154" height="88" viewBox="0 0 154 88" fill="none" xmlns="http://www.w3.org/2000/svg">
<path d="M3.90625 7.8125C1.74889 7.8125 0 6.06361 0 3.90625C0 1.74889 1.74889 0 3.90625 0H50.6392C52.7966 0 54.5455 1.74889 54.5455 3.90625C54.5455 6.06361 52.7966 7.8125 50.6392 7.8125H43.1108C36.7956 7.8125 31.6761 12.932 31.6761 19.2472V68.3239C31.6761 70.7558 29.7047 72.7273 27.2727 72.7273C24.8408 72.7273 22.8693 70.7558 22.8693 68.3239V19.2472C22.8693 12.932 17.7498 7.8125 11.4347 7.8125H3.90625Z" fill="black"/>
<path d="M102.906 7.8125C100.749 7.8125 99 6.06361 99 3.90625C99 1.74889 100.749 0 102.906 0H149.639C151.797 0 153.545 1.74889 153.545 3.90625C153.545 6.06361 151.797 7.8125 149.639 7.8125H142.111C135.796 7.8125 130.676 12.932 130.676 19.2472V68.3239C130.676 70.7558 128.705 72.7273 126.273 72.7273C123.841 72.7273 121.869 70.7558 121.869 68.3239V19.2472C121.869 12.932 116.75 7.8125 110.435 7.8125H102.906Z" fill="black"/>
<path d="M92.3977 32.0682C92.3977 30.1226 93.9749 28.5455 95.9205 28.5455C97.866 28.5455 99.4432 30.1226 99.4432 32.0682V67.0682C99.4432 71.0455 98.5057 74.5966 96.6307 77.7216C94.7746 80.8277 92.1515 83.2803 88.7614 85.0795C85.3712 86.8598 81.3939 87.75 76.8295 87.75C72.2652 87.75 68.2879 86.8598 64.8977 85.0795C61.5076 83.2803 58.875 80.8277 57 77.7216C55.1439 74.5966 54.2159 71.0455 54.2159 67.0682V32.0682C54.2159 30.1226 55.7931 28.5455 57.7386 28.5455C59.6842 28.5455 61.2614 30.1226 61.2614 32.0682V66.5C61.2614 69.3409 61.8864 71.8693 63.1364 74.0852C64.3864 76.2822 66.1667 78.0152 68.4773 79.2841C70.8068 80.5341 73.5909 81.1591 76.8295 81.1591C80.0682 81.1591 82.8523 80.5341 85.1818 79.2841C87.5114 78.0152 89.2917 76.2822 90.5227 74.0852C91.7727 71.8693 92.3977 69.3409 92.3977 66.5V32.0682Z" fill="black"/>
</svg>
