<svg width="290" height="89" viewBox="0 0 290 89" fill="none" xmlns="http://www.w3.org/2000/svg">
<path d="M4.73584 8.08545C2.57848 8.08545 0.82959 6.33656 0.82959 4.1792C0.82959 2.02184 2.57848 0.272949 4.73584 0.272949H51.4688C53.6262 0.272949 55.375 2.02184 55.375 4.1792C55.375 6.33656 53.6262 8.08545 51.4688 8.08545H43.9404C37.6252 8.08545 32.5057 13.2049 32.5057 19.5201V68.5968C32.5057 71.0287 30.5343 73.0002 28.1023 73.0002C25.6704 73.0002 23.6989 71.0287 23.6989 68.5968V19.5201C23.6989 13.2049 18.5794 8.08545 12.2642 8.08545H4.73584Z" fill="black"/>
<path d="M103.736 8.08545C101.578 8.08545 99.8296 6.33656 99.8296 4.1792C99.8296 2.02184 101.578 0.272949 103.736 0.272949H150.469C152.626 0.272949 154.375 2.02184 154.375 4.1792C154.375 6.33656 152.626 8.08545 150.469 8.08545H142.94C136.625 8.08545 131.506 13.2049 131.506 19.5201V68.5968C131.506 71.0287 129.534 73.0002 127.102 73.0002C124.67 73.0002 122.699 71.0287 122.699 68.5968V19.5201C122.699 13.2049 117.579 8.08545 111.264 8.08545H103.736Z" fill="black"/>
<path d="M93.2273 32.3411C93.2273 30.3956 94.8045 28.8184 96.75 28.8184C98.6956 28.8184 100.273 30.3956 100.273 32.3411V67.3411C100.273 71.3184 99.3353 74.8695 97.4603 77.9945C95.6042 81.1006 92.9811 83.5533 89.591 85.3525C86.2008 87.1328 82.2235 88.0229 77.6591 88.0229C73.0947 88.0229 69.1175 87.1328 65.7273 85.3525C62.3372 83.5533 59.7046 81.1006 57.8296 77.9945C55.9735 74.8695 55.0455 71.3184 55.0455 67.3411V32.3411C55.0455 30.3956 56.6227 28.8184 58.5682 28.8184C60.5138 28.8184 62.091 30.3956 62.091 32.3411V66.7729C62.091 69.6139 62.716 72.1423 63.966 74.3582C65.216 76.5551 66.9963 78.2881 69.3069 79.557C71.6364 80.807 74.4205 81.432 77.6591 81.432C80.8978 81.432 83.6819 80.807 86.0114 79.557C88.341 78.2881 90.1213 76.5551 91.3523 74.3582C92.6023 72.1423 93.2273 69.6139 93.2273 66.7729V32.3411Z" fill="black"/>
<path d="M164.014 76L155.705 48.7273H160.108L166.003 69.608H166.287L172.111 48.7273H176.585L182.338 69.5369H182.622L188.517 48.7273H192.92L184.611 76H180.491L174.526 55.0483H174.099L168.134 76H164.014Z" fill="black"/>
<path d="M198.46 76V48.7273H202.651V76H198.46ZM200.591 44.1818C199.774 44.1818 199.07 43.9036 198.478 43.3473C197.898 42.791 197.608 42.1222 197.608 41.3409C197.608 40.5597 197.898 39.8909 198.478 39.3345C199.07 38.7782 199.774 38.5 200.591 38.5C201.408 38.5 202.106 38.7782 202.686 39.3345C203.278 39.8909 203.574 40.5597 203.574 41.3409C203.574 42.1222 203.278 42.791 202.686 43.3473C202.106 43.9036 201.408 44.1818 200.591 44.1818Z" fill="black"/>
<path d="M222.186 48.7273V52.2784H208.053V48.7273H222.186ZM212.172 42.1932H216.362V68.1875C216.362 69.3712 216.534 70.259 216.877 70.8509C217.232 71.4309 217.682 71.8215 218.227 72.0227C218.783 72.2121 219.369 72.3068 219.985 72.3068C220.446 72.3068 220.825 72.2831 221.121 72.2358C221.417 72.1766 221.654 72.1293 221.831 72.0938L222.683 75.858C222.399 75.9645 222.003 76.071 221.494 76.1776C220.985 76.2959 220.34 76.3551 219.558 76.3551C218.375 76.3551 217.215 76.1006 216.078 75.5916C214.954 75.0826 214.019 74.3073 213.273 73.2656C212.539 72.224 212.172 70.91 212.172 69.3239V42.1932Z" fill="black"/>
<path d="M240.35 48.7273V52.2784H226.217V48.7273H240.35ZM230.336 42.1932H234.526V68.1875C234.526 69.3712 234.698 70.259 235.041 70.8509C235.396 71.4309 235.846 71.8215 236.391 72.0227C236.947 72.2121 237.533 72.3068 238.149 72.3068C238.61 72.3068 238.989 72.2831 239.285 72.2358C239.581 72.1766 239.818 72.1293 239.995 72.0938L240.847 75.858C240.563 75.9645 240.167 76.071 239.658 76.1776C239.149 76.2959 238.504 76.3551 237.722 76.3551C236.539 76.3551 235.379 76.1006 234.242 75.5916C233.118 75.0826 232.183 74.3073 231.437 73.2656C230.703 72.224 230.336 70.91 230.336 69.3239V42.1932Z" fill="black"/>
<path d="M257.795 76.5682C255.167 76.5682 252.901 75.9882 250.995 74.8281C249.101 73.6562 247.639 72.0227 246.609 69.9276C245.591 67.8206 245.082 65.3703 245.082 62.5767C245.082 59.7831 245.591 57.321 246.609 55.1903C247.639 53.0478 249.071 51.3788 250.906 50.1832C252.753 48.9759 254.907 48.3722 257.369 48.3722C258.79 48.3722 260.192 48.6089 261.577 49.0824C262.962 49.5559 264.223 50.3253 265.359 51.3906C266.496 52.4441 267.401 53.8409 268.076 55.581C268.751 57.321 269.088 59.4635 269.088 62.0085V63.7841H248.065V60.1619H264.827C264.827 58.6231 264.519 57.25 263.903 56.0426C263.3 54.8352 262.435 53.8823 261.311 53.1839C260.198 52.4856 258.884 52.1364 257.369 52.1364C255.7 52.1364 254.256 52.5507 253.037 53.3793C251.829 54.196 250.9 55.2614 250.249 56.5753C249.598 57.8892 249.273 59.2978 249.273 60.8011V63.2159C249.273 65.2756 249.628 67.0215 250.338 68.4538C251.06 69.8743 252.06 70.9574 253.339 71.7031C254.617 72.437 256.103 72.804 257.795 72.804C258.896 72.804 259.89 72.6501 260.778 72.3423C261.678 72.0227 262.453 71.5492 263.104 70.9219C263.755 70.2827 264.258 69.4896 264.613 68.5426L268.662 69.679C268.236 71.0521 267.519 72.2595 266.513 73.3011C265.507 74.331 264.264 75.1359 262.785 75.7159C261.305 76.2841 259.642 76.5682 257.795 76.5682Z" fill="black"/>
<path d="M275.462 76V48.7273H279.51V52.8466H279.795C280.292 51.4972 281.191 50.4022 282.493 49.5618C283.796 48.7214 285.263 48.3011 286.897 48.3011C287.205 48.3011 287.589 48.3071 288.051 48.3189C288.513 48.3307 288.862 48.3485 289.099 48.3722V52.6335C288.956 52.598 288.631 52.5447 288.122 52.4737C287.625 52.3909 287.098 52.3494 286.542 52.3494C285.216 52.3494 284.032 52.6276 282.991 53.1839C281.961 53.7285 281.144 54.486 280.54 55.4567C279.948 56.4155 279.653 57.5104 279.653 58.7415V76H275.462Z" fill="black"/>
</svg>
